# xmcd CD database file
#
# Track frame offsets:
#	150
#	37592
#	82719
#	110072
#	118643
#	141785
#	169539
#	189449
#	209557
#	225166
#
# Disc length: 3295 seconds
#
# Revision: 0
# Processed by: cddbd v1.5.2PL0 Copyright (c) Steve Scherf et al.
# Submitted via: CDex 1.51
#
DISCID=720cdd0a
DTITLE=Vladyslav Sendecki - Piano
DYEAR=2007
DGENRE=Jazz
TTITLE0=Thousand Island Park
TTITLE1=Variations
TTITLE2=Chagall Suite Part 1
TTITLE3=Chagall Suite Part 2
TTITLE4=Chagall Suite Part 3
TTITLE5=Donne Variations
TTITLE6=Vicius Circle
TTITLE7=Friendly Garden
TTITLE8=Harlequin
TTITLE9=For All Lonely People
EXTD=YEAR: 2007
EXTT0=
EXTT1=
EXTT2=
EXTT3=
EXTT4=
EXTT5=
EXTT6=
EXTT7=
EXTT8=
EXTT9=
PLAYORDER=
